# xmcd
#
# Track frame offsets:
# 150
# 15825
# 37594
# 58899
# 80850
# 96034
# 111287
# 129082
# 144992
# 164884
# 181034
#
# Disc length: 2646 seconds
#
#
# Revision: 0
# Processed by: cddbd v1.5.2PL0 Copyright (c) Steve Scherf et al.
# Submitted via: FreeRIP 2.90 
#
DISCID=840a540b
DTITLE=美好時光＿潘安邦 - 美好時光＿潘安邦
DYEAR=2008
DGENRE=Pop
TTITLE0=美好時光
TTITLE1=抉擇
TTITLE2=心雨
TTITLE3=瞭解
TTITLE4=相信我
TTITLE5=再見 Teresa
TTITLE6=爸爸的草鞋
TTITLE7=動不動就說愛我
TTITLE8=緣
TTITLE9=距離讓我們心更靠近
TTITLE10=愛一次動情一世
EXTD=
EXTT0=美好時光＿潘安邦
EXTT1=美好時光＿潘安邦
EXTT2=美好時光＿潘安邦
EXTT3=美好時光＿潘安邦
EXTT4=美好時光＿潘安邦
EXTT5=美好時光＿潘安邦
EXTT6=美好時光＿潘安邦
EXTT7=美好時光＿潘安邦
EXTT8=美好時光＿潘安邦
EXTT9=美好時光＿潘安邦
EXTT10=美好時光＿潘安邦
PLAYORDER=
